<svg xmlns="http://www.w3.org/2000/svg" version="1.0" viewBox="0 0 512 512"><path fill="#6441a4" stroke="#6441a4" stroke-width=".8" d="M131 448c-29-39-45-57-45-59l-1-80c60-11 123-34 184-44 17-2 32 8 50 5l107 93c2 2 2 6 3 43 2 49 2 45 0 45l-254 54z" style="mix-blend-mode:normal"/><circle cx="150.8" cy="536.1" r=".3" fill="#6441a4" stroke="#6441a4" stroke-width=".8"/><path fill="#6441a4" d="M402 136l-20 9-26 43c-25 52-29 48-42 74-14 3-19 10-33 12l-6 2-7-1-6 2-9 2h-3l-8 1c0-3 0-4-2-4-29 4-45 7-73 14v4l-3 2c-8 1-17 4-26 4l-8-6-39 6c-1-22-2-42 3-52l6-17c6-12 16-45 19-53 3-12-24-43 261-54"/><path d="M376 117a701 701 0 01-78 9l-60 8-31 4a12990 12990 0 00-84 12c-7 5-9 9-14 28l-9 35-4 19 9 5a352 352 0 0014-59c4-16 6-19 15-20 6-2 5-2 18 7 15 9 22 13 25 12l9-1a871 871 0 0075-9 23103 23103 0 00108-14l-24 47-27 54-4 8a3261 3261 0 00-44 8l1 5 1 5 16-2c13-3 15-3 15-2l-4 59v8l-9 2-13 2c-4 1-5 1-5 7-1 6-1 5 18 2l14-3 3-9c3-8 3-10 5-33 2-35 2-39 3-38l9 7c9 7 9 7 13 1 1-3 1-3-6-9l-8-6 25-49c31-61 33-66 36-66l15-3c19-2 19-2 20-5 2-3 0-6-10-12l-24-15-9 1zm16 15l8 5-8 1-24 3-30 5-60 8a5771 5771 0 01-61 8l-29 3-12 2-5-3-10-6-4-3 15-2 32-4 32-5 97-11 42-6c7-1 9 0 17 5z"/><path d="M90 258l-7 25-5 23-1 42c0 42 0 42 2 46 3 7 85 112 91 116 4 4 0 5 81-13l83-19c98-22 92-21 95-24l3-3v-44l1-47-20-19-58-48-5 9 18 15c10 8 21 17 24 21 36 30 35 28 20 32l-53 11-6 2-13-12-14-11-3 10 9 8 8 7-5 1-15 3-32 7-17 4-71 15c-26 5-22 6-33-8l-16-24 17-3 14-3c1-1 0-3-1-5l-3-4-34 6c-2 1-9-9-29-34l-22-29c-1-1 1-2 6-2l18-3 15-3c8-1 9-2 5-6-2-3-4-4-6-4l-39 6 7-37-8-6zm9 77l66 86 5 7v12l-2 33v20l-2-3c-14-19-29-39-45-57l-16-20-13-17-4-6v-34l1-34zm323 77c0 30 0 35-2 36l-3 2-10 1-18 4-84 19-35 7-91 21 1-67v-5l10-2 35-8 21-5 35-7 16-3 24-5 63-13 22-5 14-3c2 0 2 1 2 33z"/><path d="M394 404l-23 5v18l1 18 20-4 22-5c2 0 2-1 2-5 0-3 0-3-2-3l-26 6-1-4c1-3 1-3 10-5l9-2v-4c0-4 0-4-9-2s-10 2-10-1 1-3 16-6l12-3 1-5v-3zm-40 8c-6 1-7 2-12 8l-6 7c0 2-4 0-9-3l-6-4-15 3-1 19v18l2-1 8-2 6-1v-10l1-10 4 2c3 2 4 2 8 1 3 0 5-2 8-5l4-3 1 10v9h3l8-2 5-1v-18l-1-18-8 1zm-80 17l-21 5v8a332 332 0 001 29l43-10v-7l-14 3-14 3-1-3c0-4 1-5 12-7l8-2v-4c0-3 0-3-2-3-19 4-18 4-18 1s1-4 17-7l13-3v-4l-1-3-23 4zm-40 9c-5 1-6 2-11 8l-6 7c0 2-4 0-9-4l-5-4-7 1-8 3c-1 0-2 8-2 19v18l3-1 8-2 5-1v-10l1-10c1 0 3 0 4 2 5 3 11 2 16-3l4-4 1 10c0 8 0 10 1 9l8-2 7-2v-18l1-17h-3l-8 1zm-11-160l-51 8-11 3 2 4c3 4 3 4 9 3l14-2a1699 1699 0 0163-10v-5c0-4-1-5-2-5l-24 4zm19 76l-17 4-15 3c-8 1-8 1-6 6l1 5 5-1a450 450 0 0038-9l1-6v-3z"/><circle cx="106.1" cy="321.3" r=".1" fill="#6441a4" stroke="#6441a4" stroke-width=".8"/><circle cx="106.1" cy="321.3" r=".1" fill="#6441a4" stroke="#6441a4" stroke-width=".8"/><circle cx="106.9" cy="326.3" r=".1" fill="#6441a4" stroke="#6441a4" stroke-width=".8"/><circle cx="106.9" cy="326.3" r=".1" fill="#6441a4" stroke="#6441a4" stroke-width=".8"/><g><path d="M290 14c-1 1-2 1-8 15l-3 7-10 1c-11 1-14 2-14 6 0 2 2 4 8 10l7 6-2 10c-3 11-3 14-1 15 2 2 5 2 14-4l9-5 9 5c10 7 11 7 14 5 2-2 2-2-1-21-1-3 0-3 8-10s10-10 7-13l-20-4c-3-1-3-1-7-11s-6-13-10-12zM157 67l-8 4-4 17c0 3 1 4 8 9 4 4 9 6 10 6l9-2c8-3 8-3 11-16l1-9c-1-3-14-12-17-11l-10 2zm243 9c-5 3-8 6-8 8-2 4-2 18 0 20l19 8 9-5 8-5V92c0-9-1-11-2-13l-18-8-8 5zM65 75l-6 7-10 12c-5 6-3 6-23 2-11-2-12-2-14-1l-2 4 7 14 7 13-8 15c-8 12-8 14-7 16l3 3c1 0 10-1 29-6 2 0 5 2 14 11l12 12c1 0 2 0 3-2 2-1 3-4 4-16 0-8 1-15 2-15l15-7c14-6 14-6 14-9 1-2 0-4-1-4l-14-8-14-6-1-15c-2-17-2-18-4-20s-3-2-6 0zm370 167c-1 1-4 5-5 10l-4 7-5 1c-13 1-15 2-16 5-1 2 0 3 6 9l7 7-2 8c-3 12-3 13-1 14 3 2 5 2 14-3l8-5 7 5c8 5 12 6 15 3 1-2 1-5-2-18 0-3 0-3 7-9 6-4 7-5 7-8 0-4-2-5-13-7l-8-1-3-8-5-11c-2-2-6-2-7 1z"/></g><g><path d="M474 177c-25 4-46 13-67 28-22 15-47 42-60 64-17 29-29 54-39 84-6 18-7 20-3 23 5 3 6 1 11-16l17-44 7-14c16-35 48-73 77-92 26-17 54-25 83-24 10 0 12 0 12-4 0-6 0-6-18-6zM18 210c-2 2-2 3 0 6 2 1 5 3 13 5a198 198 0 0196 56 285 285 0 0164 106c4 12 7 15 11 10 2-2 2-4-1-12-8-26-27-64-44-87-30-41-73-70-122-84-13-3-14-3-17 0zm210 1l-2 3 6 8c11 13 18 33 22 58 3 31 2 62-4 93-1 6-1 11 1 13s6 1 7-1c4-6 8-48 8-73 0-37-6-65-18-86-5-7-14-17-17-17z"/></g><g><path fill="#0cf" d="M55 161c-16-16-14-15-31-11-14 3-15 3-17 2-2-3-1-5 9-23l5-9-7-14C4 87 5 87 26 91c7 2 13 2 15 2l12-13 12-12c2 0 4 6 6 21l1 15 15 7c13 7 15 8 14 10 0 2-3 4-14 9l-15 6-2 15c-2 14-3 19-5 19l-10-9z"/><path fill="#00f" stroke="#00f" stroke-width="1.2" d="M149 93c-9-6-9-8-6-19 2-6 2-7 7-9 9-4 13-4 18-1l9 7c2 2 2 3 1 9-3 13-3 13-11 16l-8 3c-2 0-6-3-10-6z"/><path fill="#60f" stroke="#60f" stroke-width="1.2" d="M263 80c-2-1-1-5 2-17l1-7-7-8-8-9c0-3 5-4 14-5l10-1 5-11c7-14 8-14 14 0 5 11 6 11 10 12 22 4 23 4 11 15l-9 9 2 7c1 10 1 15-1 16l-12-5-10-5-9 5c-12 6-11 5-13 4z"/><path fill="#a02c2c" stroke="#a02c2c" stroke-width="1.2" d="M396 104c-9-4-9-5-9-14 0-8 1-12 7-16 8-5 10-6 18-2 10 4 10 4 10 16v10l-7 5-9 4-10-3z"/><path fill="#f60" stroke="#f60" stroke-width="1.2" d="M411 299c-1-1-1-3 1-12l2-10-6-6c-10-10-9-13 5-14l9-1 4-9c6-13 9-13 14-2l4 9c1 3 2 3 12 5 12 1 12 5 2 13l-6 5 1 7c1 13 1 14-1 15s-4 1-11-3l-9-5-8 4c-9 5-10 5-13 4z"/></g><g fill="#ffd42a"><path d="M389 400l-22 5v36l20-4 22-5c2 0 3-1 3-5 0-3-1-4-2-3l-26 5-1-3c0-3 0-3 9-5l9-2v-4c1-4 1-4-8-2-10 2-10 2-10-1s0-3 16-7l12-3v-7zm-39 8c-6 1-7 2-13 8l-5 7c0 2-5 0-9-4l-7-4-14 4-1 19-1 18 3-1 8-2 6-1v-10l1-10 4 2c3 2 4 2 8 1 2-1 5-2 7-5l5-4 1 10v10h3l8-2 4-1v-18c1-15 0-19-1-18l-7 1zm-80 17l-21 5-1 8a332 332 0 001 28l43-9 1-8-14 3-15 3v-3c0-3 1-4 12-6l7-2v-4c1-3 0-4-2-3-19 4-17 4-17 1s1-4 16-7l14-3v-4c0-2-1-4-2-3l-22 4zm-40 9c-5 1-7 2-12 8l-5 7c-1 2-4 0-9-4l-6-4-7 1-8 3-1 18-1 18h4l8-2 4-1v-10l2-11 4 3c4 3 10 2 15-4l5-4 1 11c0 8 0 10 1 9l8-2 6-2 1-18v-18l-2 1-8 1z"/></g></svg>